<svg width="91" height="120" xmlns="http://www.w3.org/2000/svg" fill="none">
 <g id="Layer_1">
  <title>Layer 1</title>
  <path id="svg_1" fill="white" d="m55.14085,85.24907l-4.69,-4.733l4.073,-3.9785c0.366,-0.3201 0.549,-0.7545 0.549,-1.2804c0,-0.5259 -0.183,-0.9603 -0.527,-1.3033c-0.343,-0.343 -0.778,-0.5259 -1.304,-0.5259c-0.48,0 -0.938,0.2058 -1.327,0.6174l-5.858,6.0134l0,-11.5467c0,-0.5488 -0.206,-1.0061 -0.595,-1.4177c-0.389,-0.3887 -0.869,-0.5945 -1.418,-0.5945c-0.55,0 -1.007,0.2058 -1.419,0.5945c-0.389,0.3887 -0.595,0.8689 -0.595,1.4177l0,17.8574c0,0.5488 0.206,1.0061 0.595,1.4176c0.389,0.3887 0.869,0.5945 1.419,0.5945c0.549,0 1.006,-0.2058 1.418,-0.5945c0.389,-0.3887 0.595,-0.8688 0.595,-1.4176l0,-5.4875l6.339,6.8594c0.389,0.4344 0.846,0.6402 1.395,0.6402c0.527,0 0.961,-0.1829 1.327,-0.503c0.367,-0.343 0.55,-0.7774 0.55,-1.2804c0.023,-0.5488 -0.161,-0.9832 -0.527,-1.3491z"/>
  <path id="svg_2" fill="white" d="m72.78385,74.04527c-0.389,-0.3887 -0.87,-0.5945 -1.419,-0.5945c-0.549,0 -1.007,0.2058 -1.419,0.5945c-0.389,0.3887 -0.595,0.8688 -0.595,1.4176l0,0.2058c-1.167,-1.4862 -2.837,-2.2179 -5.011,-2.2179c-2.013,0 -3.707,0.7088 -5.08,2.1493c-1.395,1.4405 -2.082,3.2011 -2.082,5.3046c0,2.1036 0.687,3.8642 2.082,5.3047c1.373,1.4405 3.089,2.1493 5.08,2.1493c2.174,0 3.844,-0.7317 5.011,-2.2179l0,0.2058c0,0.5487 0.206,1.006 0.595,1.4176c0.389,0.3887 0.87,0.5945 1.419,0.5945c0.549,0 1.007,-0.2058 1.419,-0.5945c0.389,-0.3887 0.595,-0.8689 0.595,-1.4176l0,-10.9066c0,-0.5259 -0.206,-1.006 -0.595,-1.3947zm-4.691,9.6261c-0.778,0.6859 -1.716,1.0289 -2.86,1.0289c-1.145,0 -2.083,-0.343 -2.861,-1.0518c-0.778,-0.7088 -1.167,-1.6234 -1.167,-2.7438c0,-1.1432 0.389,-2.0578 1.167,-2.7437c0.778,-0.7088 1.739,-1.0518 2.861,-1.0518c1.121,0 2.082,0.343 2.86,1.0518c0.778,0.6859 1.167,1.6005 1.167,2.7437c0.023,1.1433 -0.389,2.0579 -1.167,2.7667z"/>
  <path id="svg_3" fill="white" d="m21.80185,85.98067c0,0.5716 -0.206,1.0517 -0.595,1.4404c-0.389,0.3888 -0.869,0.5945 -1.441,0.5945l-8.238,0c-0.572,0 -1.052,-0.2057 -1.441,-0.5945c-0.389,-0.3887 -0.595,-0.8688 -0.595,-1.4404l-0.023,-17.1258c0,-1.2347 1.007,-2.2408 2.242,-2.2408c1.236,0 2.243,1.0061 2.243,2.2408l-0.023,15.0908l5.835,0c0.572,0 1.052,0.2058 1.441,0.5945c0.389,0.3887 0.595,0.8688 0.595,1.4405z"/>
  <path id="svg_4" fill="white" d="m79.37285,66.61407c1.259,0 2.289,1.0289 2.289,2.2865l0,17.4688c0,0.5487 -0.229,1.006 -0.687,1.4176c-0.457,0.3887 -0.984,0.5945 -1.602,0.5945c-0.617,0 -1.167,-0.2058 -1.601,-0.5945c-0.458,-0.3887 -0.687,-0.8689 -0.687,-1.4176l0,-17.4688c0,-1.2576 1.03,-2.2865 2.288,-2.2865z"/>
  <path id="svg_5" fill="white" d="m29.94885,105.27887c-0.321,-0.32 -0.71,-0.48 -1.144,-0.48l-6.087,0c-0.458,0 -0.824,0.16 -1.144,0.48c-0.321,0.32 -0.481,0.709 -0.481,1.166c0,0.457 0.16,0.823 0.481,1.143c0.32,0.32 0.709,0.48 1.144,0.48l3.341,0c-0.298,1.304 -0.916,2.333 -1.9,3.087c-0.983,0.755 -2.196,1.12 -3.661,1.12c-1.762,0 -3.272,-0.617 -4.576,-1.874c-1.304,-1.258 -1.945,-2.859 -1.945,-4.779c0,-1.898 0.641,-3.476 1.922,-4.756c1.281,-1.281 2.837,-1.921 4.645,-1.921c0.984,0 1.922,0.206 2.838,0.64c0.915,0.435 1.693,1.006 2.333,1.715c0.412,0.48 0.916,0.709 1.556,0.709c0.572,0 1.053,-0.183 1.442,-0.594c0.389,-0.389 0.595,-0.869 0.595,-1.441c0,-0.526 -0.206,-1.029 -0.641,-1.486c-0.984,-1.052 -2.196,-1.898 -3.638,-2.538c-1.442,-0.64 -2.929,-0.938 -4.462,-0.938c-2.952,0 -5.515,1.006 -7.643,3.041c-2.128,2.035 -3.203,4.551 -3.203,7.546c0,2.995 1.053,5.51 3.181,7.545c2.128,2.035 4.645,3.041 7.596,3.041c2.884,0 5.263,-0.914 7.117,-2.721c1.853,-1.829 2.791,-4.161 2.791,-7.019c0.023,-0.457 -0.16,-0.846 -0.457,-1.166z"/>
  <path id="svg_6" fill="white" d="m47.58985,113.28087l-4.164,-6.516c2.059,-1.189 3.089,-2.835 3.089,-4.939c0,-1.898 -0.687,-3.43 -2.06,-4.619c-1.373,-1.189 -3.112,-1.806 -5.24,-1.806l-3.432,0c-0.595,0 -1.098,0.206 -1.51,0.64c-0.412,0.412 -0.641,0.915 -0.641,1.509l0,16.532c0,0.571 0.206,1.074 0.641,1.509c0.412,0.411 0.915,0.64 1.51,0.64c0.595,0 1.098,-0.206 1.51,-0.64c0.412,-0.435 0.618,-0.915 0.618,-1.509l0,-15.023l1.259,0c0.915,0 1.647,0.252 2.219,0.778c0.572,0.526 0.847,1.212 0.847,2.058c0,0.846 -0.275,1.509 -0.824,1.989c-0.549,0.48 -1.258,0.732 -2.128,0.732l-0.114,0c-0.183,0 -0.321,0.068 -0.435,0.183c-0.114,0.137 -0.183,0.274 -0.183,0.457c0,0.091 0.046,0.251 0.137,0.434l5.4,9.398c0.412,0.731 1.007,1.12 1.785,1.12c0.549,0 1.007,-0.183 1.396,-0.549c0.389,-0.365 0.572,-0.823 0.572,-1.371c0.023,-0.389 -0.069,-0.732 -0.252,-1.007z"/>
  <path id="svg_7" fill="white" d="m65.32385,95.67587c-0.412,-0.412 -0.915,-0.618 -1.51,-0.618c-0.572,0 -1.098,0.206 -1.51,0.618c-0.412,0.411 -0.618,0.914 -0.618,1.509l0,11.295c0,1.235 -0.298,2.172 -0.915,2.812c-0.595,0.663 -1.419,0.984 -2.449,0.984c-1.029,0 -1.853,-0.321 -2.448,-0.984c-0.595,-0.64 -0.915,-1.6 -0.915,-2.812l0,-11.295c0,-0.595 -0.206,-1.075 -0.641,-1.509c-0.412,-0.412 -0.915,-0.618 -1.51,-0.618c-0.595,0 -1.099,0.206 -1.511,0.618c-0.411,0.411 -0.64,0.914 -0.64,1.509l0,11.226c0,2.378 0.755,4.276 2.242,5.671c1.488,1.418 3.295,2.126 5.4,2.126c2.106,0 3.913,-0.708 5.401,-2.126c1.487,-1.418 2.242,-3.315 2.242,-5.671l0,-11.226c0,-0.595 -0.206,-1.098 -0.618,-1.509z"/>
  <path id="svg_8" fill="white" d="m82.36985,106.83287c-0.64,-0.914 -1.556,-1.554 -2.745,-1.92c0.846,-0.389 1.487,-0.961 1.967,-1.715c0.458,-0.755 0.71,-1.601 0.71,-2.561c0,-1.486 -0.618,-2.744 -1.831,-3.75c-1.213,-1.006 -2.906,-1.509 -5.034,-1.509l-3.158,0c-0.572,0 -1.098,0.206 -1.51,0.64c-0.412,0.412 -0.618,0.915 -0.618,1.509l0,16.189c0,0.594 0.206,1.097 0.618,1.509c0.412,0.411 0.916,0.64 1.51,0.64l3.547,0c2.38,0 4.21,-0.549 5.538,-1.623c1.304,-1.075 1.967,-2.47 1.967,-4.162c0,-1.257 -0.32,-2.332 -0.961,-3.247zm-7.94,-7.774l1.19,0c0.847,0 1.51,0.183 1.945,0.572c0.435,0.389 0.664,0.892 0.664,1.532c0,0.64 -0.229,1.143 -0.664,1.532c-0.435,0.389 -1.098,0.572 -1.945,0.572l-1.19,0l0,-4.208zm3.776,12.416c-0.572,0.48 -1.396,0.709 -2.471,0.709l-1.328,0l0,-5.442l1.328,0c1.075,0 1.899,0.229 2.471,0.709c0.572,0.457 0.869,1.143 0.869,2.012c0,0.869 -0.297,1.532 -0.869,2.012z"/>
  <path id="svg_9" fill="white" d="m8.22085,45.23687c0.053,0.0527 0.088,0.1225 0.096,0.1972l1.605,13.9931c0.029,0.2513 0.307,0.3903 0.514,0.2452c3.106,-2.176 21.966,-14.5871 44.923,-12.26c0.411,0.0416 0.52,-0.4151 0.115,-0.4949c-8.185,-1.6136 -24.312,-3.2876 -40.441,3.624c-0.197,0.0847 -0.425,-0.0376 -0.458,-0.2498l-0.277,-1.7672l-0.716,-3.1329c-0.032,-0.1419 0.033,-0.2881 0.16,-0.3591l2.656,-1.4853c0.214,-0.1195 0.225,-0.4228 0.02,-0.5574c-3.764,-2.4746 -7.489,-4.6292 -7.98,-10.7599c-0.245,-6.3266 11.098,-16.335 21.387,-14.2372c0.31,0.0549 0.529,0.0397 0.763,0.0363c0.252,-0.0037 0.362,0.2809 0.203,0.4758c-2.021,2.4772 -3.919,5.2226 -5.096,6.9786c-0.206,0.3076 0.173,0.6897 0.471,0.4696c11.963,-8.8391 45.772,-30.65239 43.108,-1.0083c-0.034,0.3742 0.553,0.5914 0.734,0.2622c0.359,-0.6528 0.777,-1.3601 1.186,-1.9279c0.055,-0.0769 0.147,-0.1248 0.241,-0.1318c15.702,-1.1495 13.467,9.5394 8.872,17.6539c-0.097,0.1699 -0.322,0.2134 -0.481,0.0997c-19.091,-13.6824 -46.14,-0.0802 -50.081,2.2101c-0.064,0.0447 -0.115,0.0801 -0.155,0.1084c-0.097,0.0677 -0.086,0.0929 0.029,0.066l1.81,-0.4221c21.072,-5.7414 35.639,-0.556 41.767,2.4394c0.102,0.0498 0.166,0.147 0.177,0.2599l0.673,7.013c0.022,0.2312 -0.182,0.4179 -0.407,0.3583c-3.881,-1.0306 -31.933,-7.6761 -55.608,8.5958c-0.316,0.2168 -0.048,0.7345 0.315,0.6129c8.065,-2.702 35.754,-10.4256 61.752,0.6117c0.212,0.0901 0.452,-0.0583 0.461,-0.2886l0.555,-14.4931c0.003,-0.0788 0.036,-0.1565 0.09,-0.2142c18.087,-19.3911 6.329,-31.5499 -4.226,-32.0578c-0.29,-0.0515 -0.501,-0.0888 -0.675,-0.1198c-0.201,-0.0356 -0.321,-0.2437 -0.255,-0.4365c1.464,-4.2814 1.401,-9.256 -4.159,-12.3661c-1.013,-0.4529 -2.027,-0.9057 -3.305,-1.4056c-14.802,-5.33822 -27.201,6.1895 -33.804,12.4314c-0.084,0.0795 -0.077,0.0865 -0.171,0.1527l0,0c-0.097,0.0676 -0.34,0.1553 -0.446,0.1023c-0.63,-0.3171 -1.088,-0.4068 -1.34,-0.4519c-0.021,-0.0038 -0.042,-0.0095 -0.062,-0.0174c-1.272,-0.4966 -2.806,-1.0375 -4.647,-1.3639c-12.409,-2.4738 -23.893,8.3291 -25.755,17.2871c-1.617,7.5856 1.48,11.4214 5.862,15.7241z" clip-rule="evenodd" fill-rule="evenodd"/>
  <path id="svg_10" fill="white" d="m25.56785,82.22387c-2.979,-2.93 -2.979,-7.6665 0,-10.5845c1.483,-1.471 3.433,-2.1936 5.382,-2.1936c1.947,0 3.896,0.7226 5.379,2.1954c2.979,2.9162 2.979,7.6527 0,10.5845l-4.712,4.6346c-0.37,0.3644 -0.965,0.3644 -1.335,0l-4.714,-4.6364zm1.371,-9.2361c-2.218,2.1798 -2.218,5.708 0,7.8895c2.202,2.1539 5.817,2.1539 8.021,0c2.204,-2.1798 2.204,-5.708 0,-7.8895c-2.204,-2.166 -5.819,-2.166 -8.021,0z" clip-rule="evenodd" fill-rule="evenodd"/>
  <path id="svg_11" fill="white" d="m36.32885,82.22567l-4.712,4.6346c-0.37,0.3644 -0.965,0.3644 -1.335,0l-4.714,-4.6364c-2.979,-2.93 -2.979,-7.6665 0,-10.5845c1.483,-1.471 3.433,-2.1936 5.382,-2.1936c1.947,0 3.896,0.7226 5.379,2.1954c2.979,2.9162 2.979,7.6527 0,10.5845zm0.446,-11.0359c3.232,3.1657 3.229,8.3087 -0.001,11.4876l-5.157,5.0726c-0.37,0.3644 -0.965,0.3644 -1.335,0l-5.159,-5.0742c-3.23,-3.1775 -3.232,-8.3206 0,-11.4878c1.609,-1.5956 3.722,-2.3763 5.827,-2.3763c2.103,0 4.215,0.7807 5.825,2.3781zm-9.391,2.25c-1.965,1.9311 -1.965,5.0518 0,6.9851c1.955,1.9114 5.174,1.9118 7.131,0.0005c1.951,-1.9315 1.951,-5.0531 -0.001,-6.9863c-1.957,-1.9227 -5.175,-1.922 -7.13,0.0007zm7.576,-0.452c2.204,2.1815 2.204,5.7097 0,7.8895c-2.204,2.1539 -5.819,2.1539 -8.021,0c-2.218,-2.1815 -2.218,-5.7097 0,-7.8895c2.202,-2.166 5.817,-2.166 8.021,0z" clip-rule="evenodd" fill-rule="evenodd"/>
  <path id="svg_28" fill="#EC2044" d="m54.62085,88.47147l-4.812,-4.8312l4.177,-4.0728c0.381,-0.323 0.565,-0.7724 0.565,-1.3061c0,-0.5336 -0.184,-0.9831 -0.537,-1.3342c-0.352,-0.3511 -0.804,-0.5336 -1.34,-0.5336c-0.494,0 -0.96,0.2106 -1.355,0.632l-6.012,6.1513l0,-11.7971c0,-0.5618 -0.212,-1.0252 -0.607,-1.4465c-0.395,-0.3933 -0.889,-0.6039 -1.454,-0.6039c-0.564,0 -1.03,0.2106 -1.453,0.6039c-0.396,0.3932 -0.607,0.8847 -0.607,1.4465l0,18.2433c0,0.5618 0.211,1.0248 0.607,1.4468c0.395,0.393 0.889,0.604 1.453,0.604c0.565,0 1.031,-0.211 1.454,-0.604c0.395,-0.393 0.607,-0.885 0.607,-1.4468l0,-5.6036l6.506,7.0084c0.395,0.449 0.875,0.646 1.425,0.646c0.536,0 0.988,-0.183 1.355,-0.52c0.381,-0.351 0.564,-0.8 0.564,-1.306c0.029,-0.5618 -0.169,-0.9972 -0.536,-1.3764z"/>
  <path id="svg_29" fill="#EC2044" d="m72.20585,77.02607c-0.395,-0.3932 -0.889,-0.6039 -1.454,-0.6039c-0.564,0 -1.03,0.2107 -1.453,0.6039c-0.396,0.3933 -0.607,0.8848 -0.607,1.4466l0,0.2106c-1.2,-1.5167 -2.908,-2.2611 -5.137,-2.2611c-2.061,0 -3.811,0.7303 -5.208,2.1909c-1.426,1.4746 -2.131,3.2723 -2.131,5.421c0,2.1488 0.705,3.9464 2.131,5.4211c1.411,1.4747 3.175,2.1907 5.208,2.1907c2.229,0 3.951,-0.744 5.137,-2.2609l0,0.2106c0,0.5618 0.211,1.0253 0.607,1.4463c0.395,0.393 0.889,0.604 1.453,0.604c0.565,0 1.03,-0.211 1.454,-0.604c0.395,-0.393 0.607,-0.8845 0.607,-1.4463l0,-11.137c0,-0.5477 -0.212,-1.0392 -0.607,-1.4325zm-4.813,9.8309c-0.804,0.7022 -1.764,1.0533 -2.935,1.0533c-1.172,0 -2.131,-0.3511 -2.936,-1.0814c-0.804,-0.7303 -1.199,-1.6572 -1.199,-2.8088c0,-1.1657 0.395,-2.1066 1.199,-2.7948c0.805,-0.7303 1.779,-1.0814 2.936,-1.0814c1.143,0 2.131,0.3511 2.935,1.0814c0.805,0.7022 1.2,1.6432 1.2,2.7948c0.014,1.1797 -0.409,2.1207 -1.2,2.8369z"/>
  <path id="svg_30" fill="#EC2044" d="m20.41085,89.21657c0,0.5758 -0.211,1.0813 -0.606,1.4743c-0.396,0.394 -0.89,0.604 -1.482,0.604l-8.454,0c-0.579,0 -1.087,-0.21 -1.482,-0.604c-0.395,-0.393 -0.607,-0.8844 -0.607,-1.4743l-0.028,-17.499c0,-1.264 1.03,-2.2892 2.3,-2.2892c1.271,0 2.301,1.0252 2.301,2.2892l-0.028,15.4205l5.984,0c0.578,0 1.086,0.2106 1.481,0.6039c0.41,0.4072 0.621,0.8988 0.621,1.4746z"/>
  <path id="svg_31" fill="#EC2044" d="m78.57085,69.42837c1.284,0 2.343,1.0533 2.343,2.3313l0,17.8501c0,0.5618 -0.24,1.0251 -0.706,1.4461c-0.466,0.394 -1.016,0.604 -1.651,0.604c-0.635,0 -1.2,-0.21 -1.651,-0.604c-0.466,-0.393 -0.706,-0.8843 -0.706,-1.4461l0,-17.836c0.014,-1.2921 1.073,-2.3454 2.371,-2.3454z"/>
  <path id="svg_32" fill="#2C8C64" d="m28.76585,109.00487c-0.324,-0.323 -0.734,-0.492 -1.171,-0.492l-6.252,0c-0.466,0 -0.847,0.169 -1.172,0.492c-0.324,0.323 -0.493,0.73 -0.493,1.194c0,0.463 0.169,0.842 0.493,1.165c0.325,0.323 0.734,0.492 1.172,0.492l3.429,0c-0.31,1.334 -0.945,2.387 -1.947,3.16c-1.016,0.772 -2.258,1.151 -3.754,1.151c-1.807,0 -3.359,-0.632 -4.7,-1.91c-1.341,-1.278 -1.99,-2.921 -1.99,-4.887c0,-1.938 0.649,-3.553 1.976,-4.859c1.312,-1.306 2.907,-1.966 4.77,-1.966c1.016,0 1.976,0.21 2.907,0.646c0.946,0.449 1.736,1.025 2.4,1.755c0.423,0.492 0.945,0.73 1.594,0.73c0.579,0 1.087,-0.182 1.482,-0.604c0.395,-0.393 0.607,-0.884 0.607,-1.474c0,-0.534 -0.212,-1.053 -0.649,-1.517c-1.016,-1.081 -2.258,-1.938 -3.726,-2.598c-1.468,-0.66 -3.006,-0.955 -4.573,-0.955c-3.034,0 -5.659,1.025 -7.846,3.104c-2.188,2.078 -3.289,4.648 -3.289,7.71c0,3.062 1.087,5.632 3.26,7.71c2.188,2.079 4.771,3.104 7.791,3.104c2.964,0 5.405,-0.941 7.296,-2.781c1.905,-1.868 2.865,-4.255 2.865,-7.176c0.014,-0.464 -0.169,-0.857 -0.48,-1.194z"/>
  <path id="svg_33" fill="#2C8C64" d="m46.05485,116.96687l-4.276,-6.657c2.117,-1.207 3.175,-2.893 3.175,-5.042c0,-1.938 -0.706,-3.497 -2.117,-4.718c-1.411,-1.208 -3.189,-1.84 -5.377,-1.84l-3.514,0c-0.607,0 -1.129,0.211 -1.552,0.646c-0.424,0.421 -0.65,0.941 -0.65,1.545l0,16.881c0,0.576 0.212,1.095 0.65,1.545c0.423,0.421 0.945,0.646 1.552,0.646c0.607,0 1.129,-0.211 1.552,-0.646c0.424,-0.45 0.636,-0.941 0.636,-1.545l0,-15.35l1.284,0c0.945,0 1.693,0.252 2.272,0.8c0.593,0.534 0.875,1.236 0.875,2.107c0,0.87 -0.282,1.545 -0.847,2.036c-0.564,0.492 -1.284,0.744 -2.187,0.744l-0.113,0c-0.184,0 -0.325,0.071 -0.452,0.183c-0.113,0.14 -0.183,0.281 -0.183,0.463c0,0.099 0.042,0.253 0.141,0.45l5.546,9.606c0.424,0.744 1.03,1.152 1.835,1.152c0.564,0 1.03,-0.183 1.425,-0.562c0.395,-0.379 0.579,-0.843 0.579,-1.404c0.028,-0.408 -0.057,-0.759 -0.254,-1.04z"/>
  <path id="svg_34" fill="#2C8C64" d="m63.86485,99.15987c-0.423,-0.421 -0.946,-0.632 -1.552,-0.632c-0.579,0 -1.129,0.211 -1.553,0.632c-0.423,0.421 -0.635,0.941 -0.635,1.545l0,11.544c0,1.264 -0.31,2.219 -0.945,2.865c-0.607,0.674 -1.454,1.011 -2.513,1.011c-1.058,0 -1.905,-0.323 -2.512,-1.011c-0.606,-0.646 -0.945,-1.643 -0.945,-2.865l0,-11.544c0,-0.604 -0.212,-1.096 -0.649,-1.545c-0.424,-0.421 -0.946,-0.632 -1.553,-0.632c-0.607,0 -1.129,0.211 -1.552,0.632c-0.424,0.421 -0.649,0.941 -0.649,1.545l0,11.474c0,2.429 0.776,4.368 2.3,5.786c1.524,1.447 3.387,2.177 5.546,2.177c2.16,0 4.023,-0.73 5.547,-2.177c1.524,-1.447 2.3,-3.385 2.3,-5.786l0,-11.474c0,-0.604 -0.212,-1.124 -0.635,-1.545z"/>
  <path id="svg_35" fill="#2C8C64" d="m81.12485,110.57687c-0.649,-0.941 -1.595,-1.587 -2.823,-1.966c0.875,-0.393 1.525,-0.983 2.018,-1.755c0.466,-0.773 0.734,-1.643 0.734,-2.613c0,-1.516 -0.635,-2.794 -1.877,-3.834c-1.242,-1.025 -2.977,-1.544 -5.165,-1.544l-3.246,0c-0.579,0 -1.129,0.21 -1.552,0.646c-0.424,0.421 -0.635,0.941 -0.635,1.544l0,16.544c0,0.604 0.211,1.124 0.635,1.545c0.423,0.422 0.945,0.646 1.552,0.646l3.641,0c2.442,0 4.319,-0.561 5.688,-1.657c1.34,-1.095 2.018,-2.528 2.018,-4.255c0,-1.278 -0.339,-2.374 -0.988,-3.301zm-8.157,-7.949l1.213,0c0.875,0 1.553,0.183 1.99,0.576c0.438,0.393 0.678,0.913 0.678,1.573c0,0.66 -0.24,1.166 -0.678,1.573c-0.451,0.393 -1.129,0.576 -1.99,0.576l-1.213,0l0,-4.298zm3.881,12.696c-0.579,0.492 -1.426,0.731 -2.541,0.731l-1.354,0l0,-5.576l1.354,0c1.101,0 1.948,0.239 2.541,0.73c0.578,0.464 0.889,1.166 0.889,2.051c0,0.885 -0.297,1.559 -0.889,2.064z"/>
  <path id="svg_36" fill="#EC2044" d="m6.46785,47.58937c0.057,0.0562 0.085,0.1124 0.099,0.1966l1.651,14.325c0.028,0.2528 0.311,0.3933 0.508,0.2388c3.147,-2.1909 22.623,-14.9851 46.305,-12.5274c0.409,0.0422 0.508,-0.4072 0.112,-0.4915c-8.34,-1.6572 -25.022,-3.4408 -41.689,3.6795c-0.198,0.0843 -0.423,-0.0421 -0.452,-0.2527l-0.282,-1.8117l-0.734,-3.2021c-0.028,-0.1404 0.028,-0.2809 0.155,-0.3511l2.752,-1.5308c0.212,-0.1124 0.226,-0.4213 0.029,-0.5477c-3.867,-2.528 -7.706,-4.7329 -8.2,-10.9966c-0.254,-6.4603 11.389,-16.6985 21.946,-14.5497c0.324,0.0562 0.55,0.0421 0.804,0.0421c0.254,0 0.353,0.2809 0.198,0.4775c-2.103,2.5561 -4.065,5.407 -5.279,7.2047c-0.197,0.3089 0.17,0.6881 0.466,0.4634c12.222,-9.0444 47.053,-31.47287 44.258,-1.0392c-0.042,0.3651 0.551,0.5898 0.734,0.2668c0.381,-0.6882 0.819,-1.4325 1.256,-2.0364c0.057,-0.0702 0.141,-0.1264 0.24,-0.1264c16.117,-1.1797 13.817,9.7607 9.103,18.0467c-0.099,0.1685 -0.325,0.2107 -0.48,0.0983c-19.603,-14.002 -47.363,-0.0983 -51.413,2.2471c-0.085,0.0562 -0.155,0.1123 -0.198,0.1404c-0.07,0.0562 -0.07,0.0702 0.028,0.0421l1.906,-0.4353c21.635,-5.8705 36.58,-0.5758 42.86,2.4858c0.099,0.0421 0.17,0.1404 0.184,0.2528l0.691,7.1906c0.029,0.2247 -0.183,0.4213 -0.409,0.3511c-3.937,-1.0393 -32.812,-7.8788 -57.143,8.8337c-0.31,0.2107 -0.056,0.7303 0.311,0.6039c8.171,-2.7386 36.693,-10.7297 63.451,0.5899c0.212,0.0843 0.452,-0.0562 0.452,-0.2809l0.578,-14.8306c0,-0.0843 0.043,-0.1545 0.085,-0.2107c18.573,-19.8162 6.506,-32.2453 -4.333,-32.7509c-0.31,-0.0561 -0.522,-0.0983 -0.705,-0.1264c-0.198,-0.0421 -0.325,-0.2387 -0.254,-0.4353c1.51,-4.3818 1.453,-9.4658 -4.262,-12.6538c-1.045,-0.4634 -2.075,-0.9269 -3.387,-1.4325c-15.172,-5.44912 -27.888,6.3058 -34.662,12.6819c-0.099,0.0842 -0.113,0.1264 -0.226,0.1966c-0.084,0.0561 -0.31,0.1545 -0.395,0.0983c-0.663,-0.3371 -1.143,-0.4354 -1.411,-0.4775c-0.028,0 -0.042,-0.0141 -0.056,-0.0141c-1.313,-0.5056 -2.879,-1.0533 -4.771,-1.3903c-12.744,-2.5139 -24.528,8.5248 -26.447,17.6675c-1.651,7.7664 1.538,11.6847 6.026,16.0805z" clip-rule="evenodd" fill-rule="evenodd"/>
  <path id="svg_37" fill="#EC2044" d="m35.46985,74.10437c-1.651,-1.6291 -3.811,-2.4296 -5.97,-2.4296c-2.159,0 -4.333,0.8005 -5.984,2.4296c-3.316,3.2442 -3.316,8.4967 0,11.7409l5.293,5.1826c0.381,0.365 0.987,0.365 1.369,0l5.292,-5.1826c3.316,-3.2442 3.316,-8.4967 0,-11.7409zm-2.315,2.3033c2.004,1.9802 2.004,5.1682 0,7.1344c-2.004,1.9521 -5.306,1.9521 -7.31,0c-2.018,-1.9802 -2.018,-5.1683 0,-7.1344c2.004,-1.9662 5.292,-1.9662 7.31,0z"/>
  <path id="svg_38" fill="#EC2044" d="m29.54185,82.29267c1.341,0 2.428,-1.0815 2.428,-2.4156c0,-1.3341 -1.087,-2.4156 -2.428,-2.4156c-1.34,0 -2.427,1.0815 -2.427,2.4156c0,1.3341 1.087,2.4156 2.427,2.4156z"/>
 </g>
</svg>